<svg id="Layer_1" data-name="Layer 1" xmlns="http://www.w3.org/2000/svg" viewBox="0 0 93.6 108"><defs><style>.cls-1{fill:#8dc63f;}</style></defs><title>logo</title><g id="_aphid_" data-name="&lt;aphid&gt;"><g id="bg_color"><polygon class="cls-1" points="17.84 90.04 20.15 92.79 23.84 100.62 23.84 102.86 17.61 90.47 17.84 90.04"/><polygon class="cls-1" points="75.34 89.33 75.98 89.88 70.26 103.14 69.52 103.14 69.52 101.49 71.23 97.91 73.03 94.17 74.88 89.88 75.34 89.33"/><polygon class="cls-1" points="63.24 48.33 76.16 49.35 77.69 50.4 86.5 67.95 90.45 75.53 88.84 75.84 86.25 71.14 81.15 59.53 76.66 50.44 71.64 50.12 63.48 49.14 63.24 48.33"/><polygon class="cls-1" points="45.96 34.13 48.78 34.06 52.05 32 52.78 33.23 50.33 35.2 52.78 37.82 52.78 38.86 54.66 41.23 55.23 42.69 55.23 44.85 56.99 47.08 58.01 50.08 58.3 52.13 60.22 56.03 60.99 58.72 61.57 59.94 62.06 62.97 62.88 64.71 74.97 71.12 78.77 73.35 82.57 75.85 81.79 76.97 81.14 76.17 62.75 65.65 63.28 67.67 63.37 70.04 62.92 72.51 62.42 74.98 61.36 76.45 59.89 77.63 60.42 80.77 58.83 80.03 58.01 81.22 56.62 82.44 55.64 84.53 53.88 86.41 52.33 87.52 50.45 90.97 49.84 92.16 48.37 93.97 46.8 97.31 46.02 96.72 42.73 91.63 40.36 87.03 38.85 86.37 37.17 83.9 36.31 81.67 34.64 78.88 32.35 83.94 29.41 89.93 29 88.6 33.9 76.72 32.18 74.97 30.92 71.92 30.63 68.89 31.21 67.15 30.72 65.58 21.97 69.72 17.15 72.89 11.63 76.62 11.22 75.61 13.88 72.93 21.85 68.57 31.08 64.15 33.45 56.8 34.11 54 35.82 51.65 36.6 47.57 38.97 44.82 39.75 40.78 41.18 39 41.71 37.09 44.12 34.33 45.96 34.13"/><polygon class="cls-1" points="71.38 28.48 55.84 36.32 56.45 36.92 66.34 32.7 71.81 29.05 71.38 28.48"/><polygon class="cls-1" points="24.03 28.48 30.16 32 31.95 33.67 31.57 34.07 23.66 29.57 24.03 28.48"/><polygon class="cls-1" points="30.91 48.12 16.59 50.73 7.02 69.89 7.02 67.52 11.55 59.01 16.16 50.65 18 49.41 22.81 48.12 29.83 47.56 30.91 47.56 30.91 48.12"/></g><path id="outline" d="M71.46,97.31a104.43,104.43,0,0,1,6.35-13.86,2.18,2.18,0,0,0,.2-2.21c-.92-2-1.79-4-2.53-6a6.7,6.7,0,0,0-3.6-4.14c-2.85-1.34-5.55-2.9-8.64-4.33,1.08,1.9.13,3.7,0,5.53s-.44,3.81-2.41,5.11c-.72.47-.58,1-.37,1.66a66.58,66.58,0,0,0,3.78,9.5c.18.36.38.71.53,1.08a.78.78,0,0,1-.49,1.13.87.87,0,0,1-1.2-.57c-.86-1.87-1.69-3.76-2.5-5.64-.54-1.25-1-2.51-1.64-4a9.18,9.18,0,0,0-2,2.32,12.76,12.76,0,0,1-3.44,4.22,5.39,5.39,0,0,0-2,2.44C50.8,92.22,48,94,47.62,96.66c-.08.49-.28,1.09-1,1.12s-.95-.62-1.08-1.05c-.87-2.82-3.69-4.81-4.4-7.7a2.58,2.58,0,0,0-1.07-1.38,9.45,9.45,0,0,1-3.64-4.82C36,81.75,35.13,81,34.58,79.5l-4.3,9.41a3.8,3.8,0,0,1-.23.64c-.27.38-.58.82-1.22.59s-.47-.7-.28-1.14c.81-1.89,1.59-3.78,2.4-5.67.45-1.05.9-2.1,1.38-3.14.81-1.76,1.24-3.23-.15-5.22a9.53,9.53,0,0,1-1.48-7.41,2.73,2.73,0,0,0-.2-1.51c-3.37,1.51-6.83,2.84-9.6,5-1.38,1.1-1.55,2.9-2.13,4.43-.91,2.39-1.76,4.8-2.62,7.2a2.68,2.68,0,0,0,.22,2.41c2.66,4.61,4.87,9.4,7.43,14.05,1.35,2.45.51,4.39-.69,6.47-.26.46-.94.76-.5,1.48s-.52.51-.81.6c-.58.18-.58-.3-.56-.61,0-1-.15-2.12.92-3s1-1.86.44-3c-2.46-4.81-4.81-9.66-7.39-14.86-1.85,5.37-2.75,10.59-4.34,15.69.51-2.79.95-5.6,1.56-8.38a57.55,57.55,0,0,1,2-7.86,2.18,2.18,0,0,0-.31-1.94,61.24,61.24,0,0,1-2.89-6.23c-.82-1.84,0-2.83,1.69-3.68.23.89-1.52,1.07-1,2.27,2.54-2,5.17-3.78,7.67-5.69a18.7,18.7,0,0,0-3.08,1.42c-1.29.6-2.06,1.87-3.65,2.05,1.5-1.77,3.76-2.75,5.8-3.93a5.3,5.3,0,0,0,2.33-2.36c2.79-6.09,5.29-12.27,8.47-18.23a1.86,1.86,0,0,0,.06-.6A71.92,71.92,0,0,0,18.89,50.6a4.12,4.12,0,0,0-2.64,2.07c-3.89,6.9-7.21,14-10.8,21-1.05,2.06-1.52,4.43-3.81,5.94a.7.7,0,0,0-.21.62c.11.63-.12.76-.85.62-.91-.19-.54-.6-.34-1a5.92,5.92,0,0,1,.92-1.66c2.24-2.2,2.7-5,3.9-7.61,3.05-6.55,6.58-12.9,10.25-19.21a6.48,6.48,0,0,1,4.51-2.88,38.14,38.14,0,0,1,7.94-1.07c1.73,0,3-.42,3.76-2A60.19,60.19,0,0,1,36,38.34c.72-1,.42-1.46-.72-2-3.54-1.82-6.93-3.84-10.5-5.62-1.79-.89-1.82-1.87-1.15-3.31a97.76,97.76,0,0,1,7.63-13C33,11.65,34.43,8.8,36.47,6.25c1-1.23-.05-2.23-.91-2.94a4.58,4.58,0,0,1-1.72-2.08c3.33.52,5.42,4.13,3.67,6.5-4.38,5.93-8,12.22-11.85,18.37-1.33,2.11-1.33,2.2.93,3.47,3.33,1.88,6.32,4.17,9.87,5.81,1,.44,1.47.62,1.85-.4a5,5,0,0,1,.58-.87c1.82-2.72,2.25-2.86,5.13-.95,1.84,1.23,3.67.78,5.57.39,0,.43-.88.87,0,1.26a1.31,1.31,0,0,0,1.5-.46c.34-.33.73-.76.28-1.16s-.84.2-1.26.34a3.27,3.27,0,0,1-.55.08c.26-.64,1-.88,1.53-1.23,1.39-.82,2.48-.75,3.4.61.57.84.74,2.27,1.82,2.35s2.07-.83,3.13-1.27a69.15,69.15,0,0,0,9.45-4.8C70,28.6,70.15,28,69.62,27A149.2,149.2,0,0,0,57.77,7.84c-1.38-2-.64-6,1.48-7.41.47-.32,1.07-.69,1.52-.17.25.3.08.75-.34,1.24a20.23,20.23,0,0,0-2.08,3.56c-.25.45.15.72.37,1.05,4.81,7.06,9,14.37,13.2,21.71.84,1.48-.14,2.05-1.2,2.73-3.43,2.18-7.31,3.7-11.05,5.43C57,37.2,57,37.23,58.27,39.43c1.51,2.59,3.18,5.12,4.73,7.7a2.2,2.2,0,0,0,2.05,1c3.6.25,7.18.61,10.78.88a2.44,2.44,0,0,1,2.34,1.51C81.38,58.2,86,65.39,89.4,73a38.85,38.85,0,0,0,3.8,6.45,1.48,1.48,0,0,1,.31,1.45,4,4,0,0,1-2.3-1.41,46.83,46.83,0,0,1-6.83-11.84c-2.28-5.42-5-10.69-7.65-16a1.53,1.53,0,0,0-1.44-.91c-2.93-.28-5.85-.64-8.78-.92-.52,0-1.2-.47-1.59.07s.21.84.43,1.23a167.81,167.81,0,0,1,7.57,15.63c1.06,2.45,2.26,4.5,5,5.77,1.26.58,2.27,1.54,3.52,2.14,1.73.82,1.79,2,1.12,3.27a17.47,17.47,0,0,1-1.91,3.3c-1.34,1.63-.84,3.23-.31,4.9A119.32,119.32,0,0,1,84.5,102.7a5.63,5.63,0,0,1,0,2.19,166,166,0,0,0-5.38-20.36c-.63,1.18-1.16,2.08-1.59,3-2.22,4.78-3.95,9.71-6.51,14.37a1.32,1.32,0,0,0,.19,1.55c.81,1.2,1.48,2.45,2.19,3.7.13.22.32.52-.16.68-.37-1.07-1.23.83-1.31-.08-.1-1.09-1.05-1.63-1.56-2.44-1-1.62-1.61-3.26-.53-5.08a12.52,12.52,0,0,1,1.72-3c0,1.79-1.67,3.17-1.67,5.48A113.18,113.18,0,0,0,75.45,90a3.14,3.14,0,0,0-.67,1C73.57,93.06,73.25,95.46,71.46,97.31ZM60.15,75c.06,1.54.66,1.69,1.34.9a3.69,3.69,0,0,0,.88-3.49c-.32-1-1.81-.62-2.81-.68s-1.83,0-2.75,0H50c.14-.37.26-.41.38-.43,2.3-.47,4.94.81,7-1a.46.46,0,0,1,.67.11c.64,1.48,2.09.66,3.17.78,1.58.18,1.87-.86,1.84-1.84s-.24-1.82-1.91-1.75c-3,.14-6,.27-9,.14-6.55-.29-13.1.15-19.64-.11C31.41,67.6,31,68.05,31,69c0,1.94.63,2.54,2.93,2.48,1,0,2.28.34,3-.7a.5.5,0,0,1,.7-.05c1.16,1.33,2.79.58,4.19.66,2.18.13,4.39,0,6.58,0l0,.63c-4.71,0-9.43,0-14.14,0-.85,0-2-.28-2.4.67a1.9,1.9,0,0,0,.79,2.3c2.29,1.12,1.34,2.5.76,3.9q-.72,1.73-1.46,3.46-1.26,2.93-2.52,5.86A2.5,2.5,0,0,0,30.8,86.6C32,84,33.25,81.41,34.24,78.76c.7-1.87,2.76-2.33,4.19-3.44.24-.18.71.16.74.39.1.93.94.77,1.59.83,3.67.38,7.32-.3,11-.18,1.48,0,3.17.41,4.23-1,.09-.12.63-.44.76,0,.45,1.5,2.12,2.47,2.37,4.06,0,.24.07.7.77.6C59.71,78.51,58.88,77,60.15,75ZM58.38,58.19c1.57.23,2.2-.27,1.67-1.57s-1-2.31-1.52-3.45c-.13-.28-.24-.78-.72-.68-2.46.5-4.77-.4-7.18-.49-4.78-.18-9.53.41-14.3.22a.92.92,0,0,0-.91.47,8.74,8.74,0,0,0-1.69,3.37c-.13.78-.53,1.78.7,2.17s2.2.17,2.45-1.13a.63.63,0,0,1,.66-.53c.4,0,.48.34.44.63-.08.73.26,1,1.13.94C44,58.07,48.94,58,53.85,58c.75,0,1.33,0,1.69-.78.43-.94,1.24-.65,1.35.12C57,58.32,57.77,58.11,58.38,58.19Zm-5-8.12c.64.37,1.32.48,1.35,1.06.07,1.2,1.15.86,1.87.85a1.13,1.13,0,0,0,1.22-1.42A10.67,10.67,0,0,0,56,46a2,2,0,0,0-1.91-.88c-3.73.07-7.47.06-11.2.14-4.82.11-5.05.29-6.4,4.3,0,.11-.06.22-.09.33-.17.7-.62,1.64.59,1.78.9.11,2.4.94,2.76-.78a.82.82,0,0,1,1-.65c.51.13.26.5.15.83-.24.77.44.43.81.43,3.41,0,6.82-.07,10.23,0C53.15,51.57,53.8,51.51,53.34,50.08Zm20,20a36.73,36.73,0,0,0-3.09-7.15c-2.2-4.16-4.16-8.42-6.63-12.48-.52-.85-4.15-1.73-5-1.27a.45.45,0,0,0-.27.56c.23,1.07,0,2.13.68,3.22a24.66,24.66,0,0,1,3.3,9.65,2.26,2.26,0,0,0,1,1.91C66.52,66.29,69.76,68.07,73.35,70.05Zm-13.24-3c2.64,0,2.65-.1,2.19-2.33-.25-1.22-.9-1.59-2.28-1.43a25.24,25.24,0,0,1-2.95,0c-8,0-16-.06-24-.13-1.19,0-1.63.39-1.75,1.34-.28,2.26-.06,2.36,2.61,2.63,1.33.13,1.57-.88,2.33-1.07s.8,1.22,2.16,1.19c5.44-.13,10.89,0,16.34-.07.68,0,1.7.3,1.8-.79.52.23,1.11-.74,1.35-.16C58.38,67.41,59.37,66.95,60.11,67.07Zm-23-6c0,1.27.81,1.48,1.94,1.5,2,0,4.06.32,6.08.24,3.75-.15,7.62.69,11.21-.94a.62.62,0,0,1,.52.13c.75,1.11,2,.58,3,.65.86.06,1.94,0,1.76-1s0-2.54-1.78-2.8a37.87,37.87,0,0,0-4.89-.31c-7.05-.12-14.1,0-21.14.4-1.24.07-1.27,1.26-1.49,2.08-.17.62-.1,1.35.88,1.4C34.6,62.48,36.29,63,37.08,61.1ZM21.78,68.24c2.93-1.47,5.33-3,8.17-3.74a1.56,1.56,0,0,0,1-.78,21.74,21.74,0,0,0,2-6,13.32,13.32,0,0,1,2-5.32c.85-1.15.56-2.52,1.17-3.7.11-.22-.08-.39-.36-.5-1.17-.41-4.56.71-5.1,1.73-.92,1.73-1.81,3.47-2.71,5.21A121.41,121.41,0,0,0,21.78,68.24Zm25,13.44c2.95,0,5.9,0,8.84,0,1.55,0,2.71-.73,2.88-2.05s-1.5-2.74-3.14-2.73c-5.43,0-10.86.05-16.28.15-1.07,0-2.32-.19-3.18.53-.62.52-1.2,1.14-.69,2.08s1.1,2,2.72,2Zm.61-37v0h5.71c.66,0,1.34,0,1.72-.58.75-1.2-1.21-4.55-2.79-4.77a38.22,38.22,0,0,0-8.2-.14c-3.35.26-3.86.85-4.26,3.71-.2,1.37.45,1.84,1.92,1.83C43.47,44.7,45.44,44.71,47.4,44.71Zm-1.08,42v-.12c1.18,0,2.36,0,3.54,0,3.43.15,4.34-.31,5.91-2.93.61-1,.53-1.45-1-1.44-5,.05-10.09,0-15.14,0-.86,0-2.07-.27-2.45.2-.51.64.37,1.44.81,2.08.63.91,1,2.17,2.63,2.19C42.53,86.78,44.43,86.76,46.33,86.76Zm.26,10.18a26.32,26.32,0,0,0,2.28-5.68c.08-.28.07-.75.62-.64.15,0,.19.46.46,1.18.25-1.85,1.22-3,2-4.32a34.3,34.3,0,0,0-10.78.07l2.11,4.52c.74-.36-.05-.94.66-1.32C44.95,92.71,44.62,95.08,46.59,96.94ZM60.65,47.88c.82,0,1.73.11,1.06-.94-1.81-2.83-3.6-5.67-5.45-8.48-.73-1.1-1.6-.24-2.33,0-.89.35-.3.75.05,1.16a5.22,5.22,0,0,1,1.48,3.71c-.09,1.41,1.3,2.14,1.67,3.28C57.73,48.47,59.6,47.34,60.65,47.88Zm-27.23-1c3.86,0,4.74-.71,5.37-4a6.27,6.27,0,0,1,1.33-3.29c.42-.45.81-.86-.11-1.08s-1.76-1.57-2.58-.35c-1.71,2.57-3.17,5.26-4.72,7.91C32.34,46.74,32.52,47.07,33.42,46.93ZM47.2,38.59v0c1.11,0,2.22,0,3.33,0,.63,0,1.47.36,1.85-.13.55-.71-.59-.81-.91-1.22a2.88,2.88,0,0,1-.36-.58C50.48,35.25,47.59,34,46,34.45a7.91,7.91,0,0,0-2.35,1c-.83.73-1.15,1.89-2,2.77-.29.31.59.37,1,.37C44.19,38.59,45.69,38.59,47.2,38.59ZM18.81,72.38A30.48,30.48,0,0,0,13,76c-.34.27-.7.56-.56,1a18.23,18.23,0,0,0,2.89,5.79C16.49,79.14,17.58,75.79,18.81,72.38ZM79,81.44c.82-1.61,1.44-2.81,2.05-4,.28-.55,0-.92-.53-1.26-1.49-.87-2.95-1.79-4.71-2.87C76.45,76.2,77.73,78.58,79,81.44ZM82.56,61a34.59,34.59,0,0,0,3.34,8.13c.92,1.84,1.39,3.84,2.63,5.57.21.29.36.67.85.45s.17-.49,0-.75c-.67-1.39-1.32-2.79-2-4.16C85.8,67.19,84.17,64.11,82.56,61ZM70.92,29.17c-4.61,2.62-9.62,4.67-14.27,7.24C61.64,34.34,66.76,32.45,70.92,29.17ZM41.19,37.56a3.21,3.21,0,0,1,1.28-2.18c.87-.66,0-1.11-.41-1.53a.94.94,0,0,0-1.33-.23C38.68,34.9,38.79,36.56,41.19,37.56ZM29.89,47.95c-4.28.24-8.68.18-12.5,2.34C21.44,49.09,25.68,48.68,29.89,47.95Zm33.52,17.3-.28.36c3.23,2.19,6.91,3.79,10.33,5.74l.28-.37Zm1-16.39c4,.44,8,1.33,12.17,1C72.56,49.21,68.46,49.25,64.41,48.87Zm-40.87,52.8a33.68,33.68,0,0,0-5.2-10.53Zm6.76-36.49a24.44,24.44,0,0,0-9,4.54C24.3,68.22,27.32,66.73,30.31,65.18Zm23-28.29c.55-.27,1.15-.27,1.33-.79a7,7,0,0,0-1.93-2.4,1.27,1.27,0,0,0-1.11,1.35C51.69,35.85,52.66,36.29,53.28,36.89ZM11.64,60.06a23.72,23.72,0,0,0-4.33,8.4ZM31.45,33.73a29.27,29.27,0,0,0-7-4.55l-.38.49ZM75.28,71.52l-.39.44c2.44,1.3,4.42,3.14,7,4.32l.32-.36Z" transform="translate(0)"/></g><g id="_helmet_" data-name="&lt;helmet&gt;"><path d="M20.85,60.34c.58-1.46.86-3.16,1.8-4.32,1.81-2.23,1.6-4.82,2-7.33a1.38,1.38,0,0,0-.44-.9c-3.58-3.89-3.21-8.64.91-11.95a1.85,1.85,0,0,0,.53-1.06c.42-2.37.66-4.77,1.2-7.11,1-4.25,3.77-7.26,7.4-9.42,2.08-1.24,4.43-2,6.63-3.06a1.5,1.5,0,0,0,.77-.81c.46-1.72.83-2,2.63-2s3.53,0,5.3,0,2.13.48,2.27,2.09c.06.73.54.76,1,.87a21.34,21.34,0,0,1,9.42,5c3.57,3.25,4.93,7.49,5.55,12.09,0,.21.05.43.06.65a4.31,4.31,0,0,0,2,3.75c2,1.41,2.58,4.73,1.47,7.53a33,33,0,0,1-1.87,3.26,3,3,0,0,0-.49,1.52A40.92,40.92,0,0,0,69.56,54a4.82,4.82,0,0,0,1,1.75,9.18,9.18,0,0,1,2.21,5.4c0,3.47-1.78,5.8-4.6,7.53a2.19,2.19,0,0,0-.87.88A11.86,11.86,0,0,1,57.58,77a7.11,7.11,0,0,0-.82.22H53.29a5.75,5.75,0,0,0-.77-.29,5.56,5.56,0,0,1-4.53-4H45.85A5.23,5.23,0,0,1,42,76.58c-.79.23-1.58.43-2.37.64H36a1.08,1.08,0,0,0-.28-.15,12.19,12.19,0,0,1-9.48-7.62,1.18,1.18,0,0,0-.48-.54,9.14,9.14,0,0,1-4.9-6ZM49.45,71.12c.46,2.6,1.09,3.55,3.05,4,4.34,1.06,11-.28,13.2-6.45a2.58,2.58,0,0,1,1.39-1.5c4.16-2.17,5-6.37,2.7-9.48-.47-.64-1-1.27-1.36-1.94a4.28,4.28,0,0,1-.59-1.48c-.32-2-.6-4.06-.81-6.1a2.08,2.08,0,0,1,.45-1.07,22.67,22.67,0,0,0,2.3-3.83c1-2.73-.17-5-2.8-6.23a5.41,5.41,0,0,1-4.18,2.7c-5,.79-10,1.75-15.1,1.81a98.72,98.72,0,0,1-15-1.44c-2.22-.32-4.46-.58-5.88-2.69-.09-.14-.79-.06-1,.13-3.06,2.37-3.06,6.63,0,9.26a1.69,1.69,0,0,1,.67,1.75c-.25,1.6-.34,3.23-.62,4.82A8.41,8.41,0,0,1,25,55.56a34,34,0,0,0-2.06,4.12,5.42,5.42,0,0,0,2.24,6.73,10.46,10.46,0,0,1,3.34,3.66A10.65,10.65,0,0,0,41.43,75c2.17-.69,2.71-1.46,2.58-3.67,0-.05.07-.11.11-.17Zm.7-57.05c-2.16,0-4.1,0-6,0a1.07,1.07,0,0,0-.76.72c-.1,1.61-.12,3.23-.12,4.85,0,.92.09,1.83.14,2.75l-.26,0c-.21-1.59-.45-3.17-.61-4.77-.08-.78-.45-1-1.12-.81-1.25.45-2.49.92-3.7,1.47-5.18,2.32-8.73,6-9.74,11.78a1.94,1.94,0,0,0,.34,1.44A6.74,6.74,0,0,1,30,36.84a1.15,1.15,0,0,0,.75,1.37,16.52,16.52,0,0,0,3.09.91A85.32,85.32,0,0,0,53.51,40a29.82,29.82,0,0,0,9.15-1.91,1.49,1.49,0,0,0,.84-1,9,9,0,0,1,1.75-5.35,1.74,1.74,0,0,0,.4-1.16,18.12,18.12,0,0,0-1.07-3.94c-2.38-5.11-6.59-8-11.89-9.56-.46-.13-.95-.2-1.49-.3L50.42,23l-.27,0Z" transform="translate(0)"/><path class="cls-1" d="M49.45,71.12H44.12c0,.06-.11.12-.11.17.13,2.21-.41,3-2.58,3.67a10.65,10.65,0,0,1-12.94-4.89,10.46,10.46,0,0,0-3.34-3.66,5.42,5.42,0,0,1-2.24-6.73A34,34,0,0,1,25,55.56a8.41,8.41,0,0,0,.83-2.15c.28-1.59.37-3.22.62-4.82a1.69,1.69,0,0,0-.67-1.75c-3.07-2.63-3.06-6.89,0-9.26.25-.19.95-.27,1-.13,1.42,2.11,3.66,2.38,5.88,2.69a98.72,98.72,0,0,0,15,1.44c5.11-.06,10.09-1,15.1-1.81A5.41,5.41,0,0,0,67,37.06c2.63,1.19,3.77,3.5,2.8,6.23a22.67,22.67,0,0,1-2.3,3.83A2.08,2.08,0,0,0,67,48.19c.22,2,.5,4.07.81,6.1a4.28,4.28,0,0,0,.59,1.48c.41.68.89,1.31,1.36,1.94,2.31,3.11,1.46,7.32-2.7,9.48a2.58,2.58,0,0,0-1.39,1.5c-2.23,6.17-8.86,7.51-13.2,6.45C50.54,74.67,49.91,73.71,49.45,71.12Zm-19-30.28c0,2.21,0,4,0,5.85,0,.79.44,1.13,1.31.74a26,26,0,0,1,3.15-1.12c2-.59,3.91-1.26,5.92-1.66,2.32-.46,3.26.36,3.6,2.67q.45,3,1,6.07a1.26,1.26,0,0,1-.74,1.56C41.83,56.45,39,58,36.15,59.58c-.57.31-1.14.64-1.71,1l.1.25a5.86,5.86,0,0,0,1-.17,31.82,31.82,0,0,0,3.94-1.46,14.09,14.09,0,0,1,12.69-.51c1.87.82,3.88,1.33,5.83,2a5.22,5.22,0,0,0,.9.13,7.94,7.94,0,0,0-1.53-.89c-2.86-1.6-5.69-3.24-8.56-4.82a1.42,1.42,0,0,1-.71-1.73c.41-2.23.78-4.47,1.28-6.67.42-1.87,1-2.2,2.89-2.08a3.23,3.23,0,0,1,.75.1L60.44,47l2.27.74A12.93,12.93,0,0,0,63,41.09C52.09,42.77,41.33,43.87,30.44,40.84Zm6.84,33.35c3.12,0,4.49-1.17,4.65-3.78,0-.26-.23-.76-.41-.78a35.19,35.19,0,0,0-4.9-.55,2.18,2.18,0,0,0-2.32,2.2c-.12,1.88.23,2.37,2,2.78A8.29,8.29,0,0,0,37.29,74.18ZM55.54,69a5.14,5.14,0,0,0-.88.06c-.88.17-1.77.34-2.63.59a.89.89,0,0,0-.49.64,3.22,3.22,0,0,0,2.34,3.47,10.4,10.4,0,0,0,3.3.33,2.2,2.2,0,0,0,2.12-2.78C59.1,69.73,58,69,55.54,69Zm-9.08,1.25,2.37-.51c.66-.15,1.21-.52,1.05-1.23A2,2,0,0,0,49,67.25a5.4,5.4,0,0,0-4.77.18,1.09,1.09,0,0,0,0,2A15.18,15.18,0,0,0,46.46,70.22ZM65.75,56.1c-1.4.92-2.79,1.85-4.2,2.76a1.46,1.46,0,0,1-1.89.08,2.26,2.26,0,0,1-1.07-2.11,3.71,3.71,0,0,1,.5-1.52,32.67,32.67,0,0,1,2.13-2.84c1-1.25,2.14-2.43,3.18-3.67A5.53,5.53,0,0,0,65,47.63c-1.53,1.7-3.23,3.13-4.82,4.66a9.87,9.87,0,0,0-1.79,2.42,4,4,0,0,0,1.35,5.14c.38.25,1.05.5,1.36.33A12.37,12.37,0,0,0,65.75,56.1ZM28.91,47.67l-.35.3c.74,1,1.46,1.93,2.24,2.85,1,1.18,2.14,2.24,3.05,3.48a3.51,3.51,0,0,1-.11,4.49.94.94,0,0,1-1.38.38c-.9-.53-1.77-1.09-2.63-1.68-.68-.47-1.32-1-2-1.53a11.41,11.41,0,0,0,4.67,4.16A1.32,1.32,0,0,0,33.5,60a3.6,3.6,0,0,0,1.2-5.61C32.94,52,30.85,49.9,28.91,47.67Zm-3.15,8.57c-.67.73-1.68,1.28-1.13,2.3a16.14,16.14,0,0,0,2,2.48l2.51-1.89Zm38.75,2.88c.83.58,1.69,1.63,2.36,1.52s1.27-1.31,1.89-2c0-.05.13-.14.11-.18a6.29,6.29,0,0,0-.72-1.63c-.14-.17-.87-.11-1.14.1C66.14,57.56,65.36,58.35,64.51,59.11Z" transform="translate(0)"/><path class="cls-1" d="M50.15,14.06V23l.27,0,.78-6.21c.54.11,1,.17,1.49.3C58,18.6,62.2,21.51,64.58,26.63a18.12,18.12,0,0,1,1.07,3.94,1.74,1.74,0,0,1-.4,1.16,9,9,0,0,0-1.75,5.35,1.49,1.49,0,0,1-.84,1A29.82,29.82,0,0,1,53.51,40a85.32,85.32,0,0,1-19.71-.87,16.52,16.52,0,0,1-3.09-.91A1.15,1.15,0,0,1,30,36.84a6.74,6.74,0,0,0-1.69-5.29,1.94,1.94,0,0,1-.34-1.44c1-5.76,4.56-9.46,9.74-11.78,1.21-.54,2.45-1,3.7-1.47.68-.24,1,0,1.12.81.16,1.59.4,3.18.61,4.77l.26,0c0-.92-.14-1.83-.14-2.75,0-1.62,0-3.24.12-4.85a1.07,1.07,0,0,1,.76-.72C46,14,48,14.06,50.15,14.06Zm-3.91,1.7A.8.8,0,0,0,45.76,17a1.39,1.39,0,0,0,1,.66,1.45,1.45,0,0,0,1.06-.77c.1-.29-.32-.76-.5-1.15Z" transform="translate(0)"/><path d="M30.44,40.84c10.89,3,21.64,1.93,32.53.25a12.93,12.93,0,0,1-.26,6.62L60.44,47,53,44.66a3.23,3.23,0,0,0-.75-.1c-1.92-.12-2.46.2-2.89,2.08-.5,2.21-.87,4.45-1.28,6.67A1.42,1.42,0,0,0,48.83,55c2.86,1.59,5.7,3.22,8.56,4.82a7.94,7.94,0,0,1,1.53.89,5.22,5.22,0,0,1-.9-.13c-2-.63-4-1.14-5.83-2a14.09,14.09,0,0,0-12.69.51,31.82,31.82,0,0,1-3.94,1.46,5.86,5.86,0,0,1-1,.17l-.1-.25c.57-.32,1.13-.65,1.71-1C39,58,41.83,56.45,44.7,54.94a1.26,1.26,0,0,0,.74-1.56q-.55-3-1-6.07c-.34-2.31-1.28-3.12-3.6-2.67-2,.39-4,1.07-5.92,1.66a26,26,0,0,0-3.15,1.12c-.88.39-1.28.05-1.31-.74C30.4,44.87,30.44,43,30.44,40.84Z" transform="translate(0)"/><path d="M37.29,74.18a8.29,8.29,0,0,1-1-.14c-1.79-.41-2.14-.9-2-2.78a2.18,2.18,0,0,1,2.32-2.2,35.19,35.19,0,0,1,4.9.55c.18,0,.43.52.41.78C41.78,73,40.4,74.19,37.29,74.18Z" transform="translate(0)"/><path d="M55.54,69c2.5,0,3.56.75,3.76,2.33a2.2,2.2,0,0,1-2.12,2.78,10.4,10.4,0,0,1-3.3-.33,3.22,3.22,0,0,1-2.34-3.47.89.89,0,0,1,.49-.64c.86-.25,1.75-.43,2.63-.59A5.14,5.14,0,0,1,55.54,69Z" transform="translate(0)"/><path d="M46.46,70.22a15.18,15.18,0,0,1-2.3-.77,1.09,1.09,0,0,1,0-2A5.4,5.4,0,0,1,49,67.25a2,2,0,0,1,.91,1.24c.16.71-.39,1.08-1.05,1.23Z" transform="translate(0)"/><path d="M65.75,56.1a12.37,12.37,0,0,1-4.66,4.08c-.31.17-1-.08-1.36-.33a4,4,0,0,1-1.35-5.14,9.87,9.87,0,0,1,1.79-2.42c1.6-1.54,3.3-3,4.82-4.66a5.53,5.53,0,0,1-.58,1.16c-1,1.24-2.14,2.43-3.18,3.67a32.67,32.67,0,0,0-2.13,2.84,3.71,3.71,0,0,0-.5,1.52,2.26,2.26,0,0,0,1.07,2.11,1.46,1.46,0,0,0,1.89-.08C63,57.95,64.35,57,65.75,56.1Z" transform="translate(0)"/><path d="M28.91,47.67c1.94,2.23,4,4.36,5.78,6.73A3.6,3.6,0,0,1,33.5,60a1.32,1.32,0,0,1-1.07.11A11.41,11.41,0,0,1,27.76,56c.66.51,1.29,1.05,2,1.53.85.59,1.73,1.15,2.63,1.68a.94.94,0,0,0,1.38-.38,3.51,3.51,0,0,0,.11-4.49c-.91-1.24-2.06-2.3-3.05-3.48C30,49.9,29.3,48.92,28.56,48Z" transform="translate(0)"/><path d="M25.76,56.24l3.41,2.89L26.65,61a16.14,16.14,0,0,1-2-2.48C24.08,57.52,25.08,57,25.76,56.24Z" transform="translate(0)"/><path d="M64.51,59.11c.85-.77,1.63-1.56,2.51-2.23.27-.21,1-.27,1.14-.1a6.29,6.29,0,0,1,.72,1.63s-.07.12-.11.18c-.62.73-1.17,1.92-1.89,2S65.34,59.69,64.51,59.11Z" transform="translate(0)"/><path class="cls-1" d="M46.24,15.77h1.11c.1.19.3.39.27.56a1.73,1.73,0,0,1-.36,1,1,1,0,0,1-.94,0,1.73,1.73,0,0,1-.36-1C46,16.16,46.15,16,46.24,15.77Z" transform="translate(0)"/><path d="M46.24,15.77c-.09.19-.29.39-.26.57a1.73,1.73,0,0,0,.36,1,1,1,0,0,0,.94,0,1.73,1.73,0,0,0,.36-1c0-.17-.18-.37-.27-.56.19.39.6.86.5,1.15a1.45,1.45,0,0,1-1.06.77,1.39,1.39,0,0,1-1-.66A.8.8,0,0,1,46.24,15.77Z" transform="translate(0)"/></g></svg>